<svg xmlns="http://www.w3.org/2000/svg" viewBox="0 0 399 383.2" xmlns:v="https://vecta.io/nano"><style><![CDATA[.W{shape-rendering:crispEdges}.X{fill:#8f1d7d}.Y{fill:#c10050}.Z{fill-rule:evenodd}.a{stroke-width:1.13}.b{stroke-opacity:.42}]]></style><g opacity=".5"><ellipse cx="200.3" cy="261.6" rx="197" ry="119.2" fill="#2a76d1" fill-opacity=".44"/><radialGradient id="A" cx="-645.209" cy="391.794" r=".921" gradientTransform="matrix(1 0 0 -1 0 388.1685)" gradientUnits="userSpaceOnUse"><stop offset="0" stop-color="#7db8ff"/><stop offset="1" stop-color="#7db8ff" stop-opacity="0"/></radialGradient><ellipse cx="200.3" cy="261.6" rx="197" ry="119.2" fill="none" stroke="url(#A)" stroke-width="3"/></g><ellipse cx="200.4" cy="261.3" rx="11.5" ry="7.2" fill="#7db8ff"/><radialGradient id="B" cx="-1023.272" cy="765.345" r="1.043" gradientTransform="matrix(97.1755 58.7709 161.5708 -97.7166 -24021.9453 135186.2031)" gradientUnits="userSpaceOnUse"><stop offset="0" stop-color="#3b8ae9"/><stop offset="1" stop-color="#3b8ae9" stop-opacity="0"/></radialGradient><path d="M97 199.4c56.1-33.9 147-34 203-.1s55.9 88.8-.2 122.8-147 34-203 .1-55.9-88.9.2-122.8z" fill="url(#B)" fill-opacity=".25" stroke="#b4d6ff" stroke-width="1.5"/><radialGradient id="C" cx="-1048.979" cy="753.778" r="1.043" gradientTransform="matrix(-58.3055 -35.2626 -96.406 58.3055 11706.0801 -80678.2812)" gradientUnits="userSpaceOnUse"><stop offset="0" stop-color="#3b8ae9"/><stop offset="1" stop-color="#3b8ae9" stop-opacity="0"/></radialGradient><g stroke="#b4d6ff"><ellipse cx="198.6" cy="260.9" rx="86" ry="52" opacity=".7" fill="url(#C)" fill-opacity=".4"/><ellipse cx="200.3" cy="261.6" rx="197" ry="119.2" fill="none" stroke-width="2" class="W"/></g><linearGradient id="D" gradientUnits="userSpaceOnUse" x1="-247.943" y1="-497.237" x2="-247.943" y2="-659.602" gradientTransform="matrix(0.7071 -0.7071 -0.7071 -0.7071 -136.9562 -337.6841)"><stop offset="0" stop-color="#171717"/><stop offset="1" stop-color="#171717" stop-opacity="0"/></linearGradient><path d="M200.2 261.5l140.9 85.2c-77.9 47.1-204.1 47.1-281.9 0s-77.8-123.4 0-170.5c.1.1 63.2 38.2 141 85.3z" fill="url(#D)"/><linearGradient id="E" gradientUnits="userSpaceOnUse" x1="-122.192" y1="-664.686" x2="-122.192" y2="-502.238" gradientTransform="matrix(0.7071 -0.7071 -0.7071 -0.7071 -136.9562 -337.6841)"><stop offset="0" stop-color="#001834" stop-opacity="0"/><stop offset="1" stop-color="#f8fafb"/></linearGradient><path d="M200.6 261.4l-141-85.3c77.9-47.1 204.2-47.1 282 0s77.8 123.5 0 170.6c0 0-63.1-38.1-141-85.3z" fill="url(#E)" fill-opacity=".4"/><path d="M54.8 181.1v-7.9h13.1v6.5L195.7 257c3.3-1.4 7.8-1.1 10.8.6 3.3 2 3.3 5.2 0 7.3-3.3 2-8.7 2-12 0-3-1.8-3.3-4.5-1.1-6.5L65.5 181l-10.7.1z" fill="#b4d6ff" class="Z"/><radialGradient id="F" cx="-1038.833" cy="763.948" r="1.043" gradientTransform="matrix(-216.756 7.9996 13.2271 131.0921 -234905.75 -91589.5312)" gradientUnits="userSpaceOnUse"><stop offset="0" stop-color="salmon"/><stop offset="1" stop-color="salmon" stop-opacity="0"/></radialGradient><ellipse cx="200.3" cy="261.6" rx="197" ry="119.2" fill="url(#F)" fill-opacity=".34"/><path d="M326.1 69.4a.61.61 0 0 0-.8 0l-3.7 3.7a.61.61 0 0 0 0 .8.61.61 0 0 0 .8 0l3.3-3.3 3.3 3.3a.61.61 0 0 0 .8 0 .61.61 0 0 0 0-.8l-3.7-3.7zm-.9.4v2h1.2v-2h-1.2zm0 6v4h1.2v-4h-1.2zm0 8.1v4h1.2v-4h-1.2zm0 8.1v4h1.2v-4h-1.2zm0 8.1v4h1.2v-4h-1.2zm0 8.1v4h1.2v-4h-1.2zm0 8v4h1.2v-4h-1.2zm0 8.1v4h1.2v-4h-1.2zm0 8.1v4h1.2v-4h-1.2zm0 8.1v4h1.2v-4h-1.2zm0 8.1v4h1.2v-4h-1.2zm0 8v4h1.2v-4h-1.2zm0 8.1v4h1.2v-4h-1.2zm0 8.1v4h1.2v-4h-1.2zm0 8.1v4h1.2v-4h-1.2zm0 8.1v4h1.2v-4h-1.2zm0 8v4h1.2v-4h-1.2zm0 8.1v4h1.2v-4h-1.2zm0 8.1v4h1.2v-4h-1.2zm0 8.1v2h1.2v-2h-1.2zm-95-97.3a.61.61 0 0 0-.8 0l-3.7 3.7a.61.61 0 0 0 0 .8.61.61 0 0 0 .8 0l3.3-3.3 3.3 3.3a.61.61 0 0 0 .8 0 .61.61 0 0 0 0-.8l-3.7-3.7zm-1 .4v2h1.2v-2h-1.2zm0 6.2v4.1h1.2v-4.1h-1.2zm0 8.2v4.1h1.2v-4.1h-1.2zm0 8.2v4.1h1.2V147h-1.2zm0 8.2v4.1h1.2v-4.1h-1.2zm0 8.2v4.1h1.2v-4.1h-1.2zm0 8.2v4.1h1.2v-4.1h-1.2zm0 8.1v4.1h1.2v-4.1h-1.2zm0 8.2v4.1h1.2v-4.1h-1.2zm0 8.2v4.1h1.2v-4.1h-1.2zm0 8.2v4.1h1.2v-4.1h-1.2zm0 8.2v2h1.2v-2h-1.2zM69.1 251.6a.61.61 0 0 0-.8 0l-3.7 3.7a.61.61 0 0 0 0 .8.61.61 0 0 0 .8 0l3.3-3.3 3.3 3.3a.61.61 0 0 0 .8 0 .61.61 0 0 0 0-.8l-3.7-3.7zm-1 .4v2.1h1.2V252h-1.2zm0 6.2v4.1h1.2v-4.1h-1.2zm0 8.3v4.1h1.2v-4.1h-1.2zm0 8.2v4.1h1.2v-4.1h-1.2zm0 8.3v4.1h1.2V283h-1.2zm0 8.2v4.1h1.2v-4.1h-1.2zm0 8.3v2.1h1.2v-2.1h-1.2zm94.6-265a.61.61 0 0 0-.8 0l-3.7 3.7a.61.61 0 0 0 0 .8.61.61 0 0 0 .8 0l3.3-3.3 3.3 3.3a.61.61 0 0 0 .8 0 .61.61 0 0 0 0-.8l-3.7-3.7zm-.9.5v2.1h1.2V35h-1.2zm0 6.2v4.2h1.2v-4.2h-1.2zm0 8.4v4.2h1.2v-4.2h-1.2zm0 8.4v4.2h1.2V58h-1.2zm0 8.4v4.2h1.2v-4.2h-1.2zm0 8.3v4.2h1.2v-4.2h-1.2zm0 8.4v4.2h1.2v-4.2h-1.2zm0 8.4v4.2h1.2v-4.2h-1.2zm0 8.3v4.2h1.2v-4.2h-1.2zm0 8.4v4.2h1.2v-4.2h-1.2zm0 8.4v4.2h1.2v-4.2h-1.2zm0 8.4v4.2h1.2V125h-1.2zm0 8.3v4.2h1.2v-4.2h-1.2zm0 8.4v4.2h1.2v-4.2h-1.2zm0 8.4v4.2h1.2v-4.2h-1.2zm0 8.4v2.1h1.2v-2.1h-1.2zM286 272.4a.61.61 0 0 0-.8 0l-3.7 3.7a.61.61 0 0 0 0 .8.61.61 0 0 0 .8 0l3.3-3.3 3.3 3.3a.61.61 0 0 0 .8 0 .61.61 0 0 0 0-.8l-3.7-3.7zm-.9.4v2.1h1.2v-2.1h-1.2zm0 6.3v4.2h1.2v-4.2h-1.2zm0 8.3v4.2h1.2v-4.2h-1.2zm0 8.3v4.2h1.2v-4.2h-1.2zm0 8.3v4.2h1.2V304h-1.2zm0 8.3v4.2h1.2v-4.2h-1.2zm0 8.4v4.2h1.2v-4.2h-1.2zm0 8.3v4.2h1.2V329h-1.2zm0 8.3v4.2h1.2v-4.2h-1.2zm0 8.3v2.1h1.2v-2.1h-1.2z" fill="#ffcdc7"/><path d="M132.5 20.6c-.7 0-1.3-.2-1.9-.5-.5-.3-.9-.8-1.2-1.4s-.4-1.3-.4-2c0-.8.1-1.5.4-2.1s.7-1 1.2-1.4 1.1-.5 1.9-.5c.7 0 1.3.2 1.9.5s.9.8 1.2 1.4.4 1.3.4 2.1-.1 1.5-.4 2c-.3.6-.7 1-1.2 1.4-.6.3-1.2.5-1.9.5zm0-1.3c.5 0 .8-.1 1.1-.4.3-.2.5-.6.7-1 .1-.4.2-.8.2-1.3s-.1-.9-.2-1.3-.4-.7-.7-1c-.3-.2-.7-.4-1.1-.4-.5 0-.8.1-1.2.4-.3.2-.5.6-.7 1-.1.4-.2.8-.2 1.3s.1.9.2 1.3.4.7.7 1 .7.4 1.2.4zm6.6-9v10.1h-1.5V10.3h1.5zm4.8 10.3c-.6 0-1.2-.2-1.6-.5-.5-.3-.8-.8-1.1-1.3-.3-.6-.4-1.3-.4-2.1s.1-1.5.4-2.1a3.61 3.61 0 0 1 1.1-1.3c.5-.3 1-.5 1.6-.5.5 0 .8.1 1.1.2.3.2.5.3.7.5s.3.4.4.5h.1v-3.7h1.5v10.1h-1.4v-1.2h-.2c-.1.2-.2.3-.4.6-.2.2-.4.4-.7.5-.2.2-.6.3-1.1.3zm.4-1.3c.4 0 .8-.1 1.1-.3s.5-.5.7-.9.2-.9.2-1.4-.1-1-.2-1.4c-.2-.4-.4-.7-.7-.9s-.7-.3-1.1-.3-.8.1-1.1.3-.5.5-.7.9c-.1.4-.2.8-.2 1.3s.1 1 .2 1.4.4.7.7 1c.3.2.6.3 1.1.3zm6.4 1.2c-.3 0-.5-.1-.7-.3s-.3-.4-.3-.7.1-.5.3-.7.4-.3.7-.3.5.1.7.3.3.4.3.7c0 .2 0 .3-.1.5-.1.1-.2.3-.4.4-.1.1-.3.1-.5.1zm6.5-7.6v1.2h-4.1v-1.2h4.1zm-3-1.8h1.5v7.1c0 .3 0 .5.1.6l.3.3c.1 0 .3.1.4.1h.3.2l.3 1.2c-.1 0-.2.1-.4.1s-.4.1-.6.1c-.4 0-.7-.1-1.1-.2-.3-.1-.6-.4-.8-.7s-.3-.7-.3-1.1v-7.5c0 0 .1 0 .1 0zm6.9 9.5c-.5 0-.9-.1-1.3-.3s-.7-.4-.9-.8c-.2-.3-.3-.8-.3-1.3 0-.4.1-.8.2-1.1.2-.3.4-.5.7-.7s.6-.3.9-.4.7-.1 1.1-.2c.5-.1.8-.1 1.1-.1s.5-.1.6-.2.2-.2.2-.4h0c0-.4-.1-.8-.4-1-.2-.2-.6-.4-1.1-.4s-.9.1-1.2.3-.5.5-.6.7l-1.4-.3c.2-.5.4-.8.7-1.1s.7-.5 1.1-.6.8-.2 1.3-.2c.3 0 .6 0 1 .1.3.1.7.2 1 .4s.5.5.7.8.3.8.3 1.3v5h-1.4v-1h-.1c-.1.2-.2.4-.4.6s-.4.3-.7.5c-.4.3-.7.4-1.1.4zm.3-1.2c.4 0 .8-.1 1-.2.3-.2.5-.4.7-.6.2-.3.2-.5.2-.8v-1c-.1.1-.2.1-.3.1s-.3.1-.5.1-.4.1-.6.1-.3 0-.5.1c-.3 0-.5.1-.8.2-.2.1-.4.2-.6.4-.1.2-.2.4-.2.6 0 .4.1.6.4.8.4.1.8.2 1.2.2zm5.3 1v-7.6h1.4V14h.1c.1-.4.4-.7.7-1 .4-.2.7-.4 1.2-.4h.3.3v1.6c-.1 0-.2 0-.3-.1h-.5a2.39 2.39 0 0 0-.9.2.9.9 0 0 0-.6.6c-.2.3-.2.5-.2.9v4.6h-1.5zm8.3 3c-.6 0-1.1-.1-1.6-.2l-1.1-.6c-.3-.3-.5-.5-.6-.9l1.3-.5c.1.1.2.3.4.5s.4.3.6.4c.3.1.6.2 1 .2.6 0 1-.1 1.4-.4s.5-.7.5-1.3v-1.5h-.1c-.1.2-.2.3-.4.5s-.4.4-.7.5-.7.2-1.1.2c-.6 0-1.1-.1-1.6-.4s-.9-.7-1.1-1.2c-.3-.6-.4-1.2-.4-2s.1-1.5.4-2.1a3.61 3.61 0 0 1 1.1-1.3c.5-.3 1-.5 1.6-.5.5 0 .8.1 1.1.2.3.2.5.3.7.5s.3.4.4.5h.1v-1.2h1.4v7.7c0 .6-.2 1.2-.5 1.6a2.73 2.73 0 0 1-1.2.9c-.4.3-1 .4-1.6.4zm-.1-4.3c.4 0 .8-.1 1.1-.3s.5-.5.7-.9.2-.8.2-1.3a4.44 4.44 0 0 0-.2-1.3c-.2-.4-.4-.7-.7-.9s-.7-.3-1.1-.3-.8.1-1.1.3-.5.5-.7.9c-.1.4-.2.8-.2 1.3s.1.9.2 1.3c.2.4.4.7.7.9s.7.3 1.1.3zm8.7 1.5c-.7 0-1.4-.2-1.9-.5s-.9-.8-1.2-1.4-.4-1.3-.4-2.1.1-1.5.4-2c.3-.6.7-1.1 1.2-1.4s1.1-.5 1.8-.5c.4 0 .8.1 1.2.2s.8.4 1.1.7.6.7.8 1.2.3 1.1.3 1.7v.5h-6v-1.1h4.6c0-.4-.1-.7-.2-1-.2-.3-.4-.5-.7-.7a1.69 1.69 0 0 0-1-.3c-.4 0-.8.1-1.1.3s-.5.5-.7.8-.2.7-.2 1v.9c0 .5.1.9.3 1.3a1.56 1.56 0 0 0 .8.8c.3.2.7.3 1.1.3.3 0 .5 0 .8-.1.2-.1.4-.2.6-.4s.3-.4.4-.6l1.4.3c-.1.4-.3.8-.6 1.1s-.6.5-1.1.7c-.7.2-1.2.3-1.7.3zm8.4-7.7v1.2h-4.1v-1.2h4.1zm-3-1.8h1.5v7.1c0 .3 0 .5.1.6l.3.3c.1 0 .3.1.4.1h.3.2l.3 1.2c-.1 0-.2.1-.4.1s-.4.1-.6.1c-.4 0-.7-.1-1.1-.2-.3-.1-.6-.4-.8-.7s-.3-.7-.3-1.1v-7.5c0 0 .1 0 .1 0zm5.6 9.4c-.3 0-.5-.1-.7-.3s-.3-.4-.3-.7.1-.5.3-.7.4-.3.7-.3.5.1.7.3.3.4.3.7c0 .2 0 .3-.1.5-.1.1-.2.3-.4.4s-.3.1-.5.1zm6.1.1c-.7 0-1.4-.2-1.9-.5s-.9-.8-1.2-1.4-.4-1.3-.4-2c0-.8.1-1.4.4-2s.7-1.1 1.2-1.4 1.1-.5 1.9-.5c.6 0 1.1.1 1.5.3s.8.5 1.1.9.4.8.5 1.3h-1.4c-.1-.4-.3-.7-.5-.9-.3-.3-.7-.4-1.1-.4s-.8.1-1.1.3-.5.5-.7.9-.3.9-.3 1.4c0 .6.1 1 .2 1.4.2.4.4.7.7.9s.7.3 1.1.3c.3 0 .5-.1.8-.2.2-.1.4-.3.6-.4.2-.2.3-.4.3-.7h1.4c-.1.5-.2.9-.5 1.3s-.6.7-1.1.9c-.4.4-.9.5-1.5.5zm7.9 0c-.7 0-1.3-.2-1.9-.5-.5-.3-.9-.8-1.2-1.4s-.4-1.3-.4-2c0-.8.1-1.5.4-2.1s.7-1 1.2-1.4 1.1-.5 1.9-.5c.7 0 1.3.2 1.9.5s.9.8 1.2 1.4.4 1.3.4 2.1-.1 1.5-.4 2c-.3.6-.7 1-1.2 1.4-.6.3-1.2.5-1.9.5zm0-1.3c.5 0 .8-.1 1.1-.4.3-.2.5-.6.7-1 .1-.4.2-.8.2-1.3s-.1-.9-.2-1.3-.4-.7-.7-1c-.3-.2-.7-.4-1.1-.4-.5 0-.8.1-1.2.4-.3.2-.5.6-.7 1-.1.4-.2.8-.2 1.3s.1.9.2 1.3.4.7.7 1 .7.4 1.2.4zm5.1 1.1v-7.6h1.4V14h.1c.2-.4.4-.7.8-1 .4-.2.8-.4 1.3-.4s.9.1 1.3.4c.3.2.6.6.8 1h.1c.2-.4.5-.7.9-1 .4-.2.9-.4 1.4-.4a2.52 2.52 0 0 1 1.7.6c.4.4.7 1.1.7 1.9v5.1h-1.5v-4.9c0-.5-.1-.9-.4-1.1a1.69 1.69 0 0 0-1-.3c-.5 0-.9.1-1.1.4-.3.3-.4.7-.4 1.1v4.8h-1.5v-5c0-.4-.1-.7-.4-1-.3-.2-.6-.4-1-.4-.3 0-.5.1-.8.2-.2.1-.4.3-.6.6-.1.3-.2.6-.2.9v4.7h-1.6v.2z" fill="#ffcece"/><path d="M118.5 9.1a2.69 2.69 0 0 0-2.7-2.7h-13.6a2.69 2.69 0 0 0-2.7 2.7v10a2.69 2.69 0 0 0 2.7 2.7h3.7c-.2.8-.7 1.5-1.3 2-.3.2-.4.6-.3 1 .1.3.5.6.8.6h7.7c.4 0 .7-.2.8-.6.1-.3 0-.7-.3-1-.6-.5-1.1-1.2-1.3-2h3.7a2.69 2.69 0 0 0 2.7-2.7v-10h.1zm-1.8 0c0-.5-.4-.9-.9-.9h-13.6c-.5 0-.9.4-.9.9V18c0 .5.4.9.9.9h13.6c.5 0 .9-.4.9-.9V9.1z" fill="#e17367" class="Z"/><path d="M223.6.8H101.3c-4 0-7.3 3.3-7.3 7.3v15.5c0 4 3.3 7.3 7.3 7.3h122.3c4 0 7.3-3.3 7.3-7.3V8.1c0-4-3.2-7.3-7.3-7.3z" fill="none" stroke="#ffd1d1" stroke-width=".565" stroke-opacity=".74" class="W"/><path d="M288 43.3h0c3.8 0 6.9 3.1 6.9 6.9h0c0 3.8-3.1 6.9-6.9 6.9h0c-3.8 0-6.9-3.1-6.9-6.9h0c0-3.8 3.1-6.9 6.9-6.9z" fill="#00a268"/><path d="M310.1 56.2c-.7 0-1.3-.1-1.9-.4a3.25 3.25 0 0 1-1.3-1c-.3-.4-.5-.9-.5-1.5 0-.4.1-.8.3-1.2s.4-.7.7-.9a4.67 4.67 0 0 1 1-.5v-.1c-.5-.1-.9-.4-1.2-.8s-.5-.9-.4-1.4c0-.5.1-1 .4-1.4s.7-.7 1.1-1c.5-.2 1-.3 1.7-.3.6 0 1.2.1 1.6.4a2.17 2.17 0 0 1 1.1 1c.3.4.4.9.4 1.4s-.2 1-.5 1.4-.7.7-1.2.8v.1c.4.1.7.2 1 .5.3.2.5.5.7.9s.3.7.3 1.2-.2 1-.5 1.5c-.3.4-.7.8-1.3 1-.2.2-.8.3-1.5.3zm0-1.2c.4 0 .8-.1 1.1-.2s.5-.3.7-.6.3-.5.3-.9-.1-.7-.3-.9c-.2-.3-.4-.5-.7-.6-.3-.2-.7-.2-1-.2-.4 0-.8.1-1.1.2-.3.2-.6.4-.7.6s-.3.6-.3.9.1.6.2.9c.2.2.4.4.7.6.3.1.7.2 1.1.2zm0-4.7c.3 0 .6-.1.9-.2a.9.9 0 0 0 .6-.6c.2-.2.2-.5.2-.8s-.1-.6-.2-.8-.3-.4-.6-.5-.6-.2-.9-.2a2.39 2.39 0 0 0-.9.2c-.3.1-.5.3-.6.5s-.2.5-.2.8.1.6.2.8.4.4.6.6c.2.1.5.2.9.2zm5.1 3.8v-1.2l4.4-6.9h1v1.8h-.6l-3.1 4.9v.1h6v1.3c0 0-7.7 0-7.7 0zm4.8 2v-2.3-.6V46h1.4v10.1H320zm4.3-2v-1.2l4.4-6.9h1v1.8h-.6l-3.1 4.9v.1h6v1.3c0 0-7.7 0-7.7 0zm4.8 2v-2.3-.6V46h1.4v10.1h-1.4zm8 .1c-.7 0-1.3-.1-1.8-.3s-.9-.6-1.3-1c-.3-.4-.5-.9-.5-1.4h1.5c0 .3.1.6.3.8s.4.4.7.5.6.2 1 .2.7-.1 1.1-.2c.3-.1.5-.3.7-.6.2-.2.3-.5.3-.9 0-.3-.1-.6-.3-.9s-.4-.5-.8-.6a3.73 3.73 0 0 0-1.2-.2h-.9v-1.2h.9c.4 0 .7-.1 1-.2s.5-.3.7-.6c.2-.2.2-.5.2-.9 0-.3-.1-.6-.2-.8s-.3-.4-.6-.5-.6-.2-.9-.2-.6.1-.9.2-.5.3-.7.5-.3.5-.3.8h-1.5c0-.5.2-1 .5-1.4s.7-.7 1.2-1c.5-.2 1.1-.3 1.7-.3s1.2.1 1.7.4c.5.2.8.6 1.1 1s.4.9.4 1.4c0 .6-.2 1-.5 1.4s-.7.7-1.3.8v.1c.7.1 1.2.4 1.6.8s.6 1 .6 1.6-.2 1.1-.5 1.5-.7.8-1.3 1a7.18 7.18 0 0 1-1.7.2zm9.2-10.6l-3.2 12h-1.3l3.2-12.1 1.3.1h0zm4.8 2.9v1.2H347v-1.2h4.1zm-3-1.8h1.5v7.1c0 .3 0 .5.1.6l.3.3c.1 0 .3.1.4.1h.3.2l.3 1.2c-.1 0-.2.1-.4.1s-.4.1-.6.1c-.4 0-.7-.1-1.1-.2-.3-.1-.6-.4-.8-.7s-.3-.7-.3-1.1v-7.5h.1zm7.7 9.6c-.7 0-1.4-.2-1.9-.5s-.9-.8-1.2-1.4-.4-1.3-.4-2c0-.8.1-1.4.4-2s.7-1.1 1.2-1.4 1.1-.5 1.9-.5c.6 0 1.1.1 1.5.3s.8.5 1.1.9.4.8.5 1.3h-1.4c-.1-.4-.3-.7-.5-.9-.3-.3-.7-.4-1.1-.4s-.8.1-1.1.3-.5.5-.7.9-.3.9-.3 1.4c0 .6.1 1 .3 1.4s.4.7.7.9.7.3 1.1.3c.3 0 .5-.1.8-.2.2-.1.4-.3.6-.4.2-.2.3-.4.3-.7h1.4c-.1.5-.2.9-.5 1.3s-.6.7-1.1.9c-.4.3-1 .5-1.6.5zm4.7 2.6V48.5h1.4v1.2h.1c.1-.2.2-.3.4-.5s.4-.4.7-.5c.3-.2.7-.2 1.1-.2.6 0 1.2.2 1.6.5.5.3.9.8 1.1 1.3.3.6.4 1.3.4 2.1s-.1 1.5-.4 2.1-.6 1-1.1 1.3-1 .5-1.6.5c-.5 0-.8-.1-1.1-.2-.3-.2-.5-.3-.7-.5s-.3-.4-.4-.6h-.1v4h-1.4v-.1zm1.5-6.6c0 .5.1 1 .2 1.4.2.4.4.7.7.9s.6.3 1.1.3c.4 0 .8-.1 1.1-.3s.5-.6.7-1 .2-.9.2-1.4-.1-.9-.2-1.3-.4-.7-.7-.9-.7-.3-1.1-.3-.8.1-1.1.3-.5.5-.7.9-.2.9-.2 1.4z" fill="#e6faf3"/><path d="M288.2 37.4h74.9c6.6 0 11.9 5.3 11.9 11.9V52c0 6.6-5.3 11.9-11.9 11.9h-74.9c-6.6 0-11.9-5.3-11.9-11.9v-2.7c0-6.6 5.3-11.9 11.9-11.9z" fill="none" stroke="#ffe9e9" class="W a b"/><path d="M40.7 219.9h55.9c6.9 0 12.4 5.6 12.4 12.4v2.7c0 6.9-5.6 12.4-12.4 12.4H40.7c-6.9 0-12.4-5.6-12.4-12.4v-2.7c0-6.8 5.6-12.4 12.4-12.4z" opacity=".5" fill-opacity=".45" class="W"/><path d="M40.6 226.4h0c3.8 0 6.9 3.1 6.9 6.9h0c0 3.8-3.1 6.9-6.9 6.9h0c-3.8 0-6.9-3.1-6.9-6.9h0c-.1-3.8 3-6.9 6.9-6.9z" fill="#00a268"/><path d="M59.2 239.2v-1.1l3.4-3.5c.4-.4.7-.7.9-1l.5-.8c.1-.3.2-.5.2-.8s-.1-.6-.2-.9l-.6-.6c-.3-.1-.6-.2-.9-.2-.4 0-.7.1-.9.2-.3.1-.5.4-.6.6-.1.3-.2.6-.2.9h-1.5c0-.6.1-1.1.4-1.6s.7-.8 1.2-1.1 1.1-.4 1.7-.4 1.2.1 1.7.4a2.17 2.17 0 0 1 1.1 1c.3.4.4.9.4 1.5 0 .4-.1.7-.2 1.1s-.4.8-.7 1.2-.8 1-1.4 1.6l-2 2.1v.1H66v1.3h-6.8 0zm8.5 0v-1.1l3.4-3.5c.4-.4.7-.7.9-1l.5-.8c.1-.3.2-.5.2-.8s-.1-.6-.2-.9l-.6-.6c-.3-.1-.6-.2-.9-.2-.4 0-.7.1-.9.2-.3.1-.5.4-.6.6-.1.3-.2.6-.2.9h-1.5c0-.6.1-1.1.4-1.6s.7-.8 1.2-1.1 1.1-.4 1.7-.4 1.2.1 1.7.4a2.17 2.17 0 0 1 1.1 1c.3.4.4.9.4 1.5 0 .4-.1.7-.2 1.1s-.4.8-.7 1.2-.8 1-1.4 1.6l-2 2.1v.1h4.5v1.3h-6.8 0zm12.4-10.6l-3.2 12.1h-1.3l3.2-12.1h1.3zm4.8 3v1.2h-4.1v-1.2h4.1zm-3.1-1.8h1.5v7.1c0 .3 0 .5.1.6l.3.3c.1 0 .3.1.4.1h.3.2l.3 1.2c-.1 0-.2.1-.4.1s-.4.1-.6.1c-.4 0-.7-.1-1.1-.2-.3-.1-.6-.4-.8-.7s-.3-.7-.3-1.1l.1-7.5h0zm7.8 9.5c-.7 0-1.4-.2-1.9-.5s-.9-.8-1.2-1.4-.4-1.3-.4-2c0-.8.1-1.4.4-2s.7-1.1 1.2-1.4 1.1-.5 1.9-.5c.6 0 1.1.1 1.5.3s.8.5 1.1.9.4.8.5 1.3h-1.4c-.1-.4-.3-.7-.5-.9-.3-.3-.7-.4-1.1-.4s-.8.1-1.1.3-.5.5-.7.9-.3.9-.3 1.4c0 .6.1 1 .3 1.4s.4.7.7.9.7.3 1.1.3c.3 0 .5-.1.8-.2.2-.1.4-.3.6-.4.2-.2.3-.4.3-.7h1.4c-.1.5-.2.9-.5 1.3s-.6.7-1.1.9c-.5.4-1 .5-1.6.5zm4.7 2.7v-10.4h1.4v1.2h.1c.1-.2.2-.3.4-.5s.4-.4.7-.5c.3-.2.7-.2 1.1-.2.6 0 1.2.2 1.6.5.5.3.9.8 1.1 1.3.3.6.4 1.3.4 2.1s-.1 1.5-.4 2.1-.6 1-1.1 1.3-1 .5-1.6.5c-.5 0-.8-.1-1.1-.2-.3-.2-.5-.3-.7-.5s-.3-.4-.4-.6h-.1v4l-1.4-.1h0zm1.4-6.6c0 .5.1 1 .2 1.4.2.4.4.7.7.9s.6.3 1.1.3c.4 0 .8-.1 1.1-.3s.5-.6.7-1 .2-.9.2-1.4-.1-.9-.2-1.3-.4-.7-.7-.9-.7-.3-1.1-.3-.8.1-1.1.3-.5.5-.7.9c-.1.4-.2.9-.2 1.4z" fill="#e6faf3"/><path d="M40.7 220.5h55.9c6.6 0 11.9 5.3 11.9 11.9v2.7c0 6.6-5.3 11.9-11.9 11.9H40.7c-6.6 0-11.9-5.3-11.9-11.9v-2.7c.1-6.6 5.4-11.9 11.9-11.9z" fill="none" stroke="#ffe9e9" class="W a b"/><path d="M269.3 92.1h-77.7c-8.1 0-14.7 6.6-14.7 14.7h0c0 8.1 6.6 14.7 14.7 14.7h77.7c8.1 0 14.7-6.6 14.7-14.7h0c0-8.1-6.6-14.7-14.7-14.7z" fill="#ffa89e" fill-opacity=".07" stroke="#93b1c9" stroke-width=".5" class="W"/><path d="M209.1 111.8l-2.8-10.1h1.6l2 7.8h.1l2-7.8h1.6l2 7.8h.1l2-7.8h1.6l-2.8 10.1H215l-2.1-7.5h-.1l-2.1 7.5h-1.6zm13.9.1c-.7 0-1.3-.2-1.9-.5-.5-.3-.9-.8-1.2-1.4s-.4-1.3-.4-2c0-.8.1-1.5.4-2.1s.7-1 1.2-1.4c.5-.3 1.1-.5 1.9-.5.7 0 1.3.2 1.9.5.5.3.9.8 1.2 1.4s.4 1.3.4 2.1-.1 1.5-.4 2c-.3.6-.7 1-1.2 1.4-.6.4-1.2.5-1.9.5zm0-1.2c.5 0 .8-.1 1.1-.4.3-.2.5-.6.7-1 .1-.4.2-.8.2-1.3s-.1-.9-.2-1.3-.4-.7-.7-1c-.3-.2-.7-.4-1.1-.4-.5 0-.8.1-1.2.4-.3.2-.5.6-.7 1-.1.4-.2.8-.2 1.3s.1.9.2 1.3.4.7.7 1 .7.4 1.2.4zm5.1 1.1v-7.6h1.4v1.2h.1c.1-.4.4-.7.7-1 .4-.2.7-.4 1.2-.4h.3.3v1.4c-.1 0-.2 0-.3-.1h-.5a2.39 2.39 0 0 0-.9.2.9.9 0 0 0-.6.6c-.2.3-.2.5-.2.9v4.6h-1.5v.2zm7.9.1c-.6 0-1.2-.2-1.6-.5-.5-.3-.8-.8-1.1-1.3-.3-.6-.4-1.3-.4-2.1s.1-1.5.4-2.1a3.61 3.61 0 0 1 1.1-1.3c.5-.3 1-.5 1.6-.5.5 0 .8.1 1.1.2.3.2.5.3.7.5s.3.4.4.5h.1v-3.7h1.5v10.1h-1.4v-1.2h-.1c-.1.2-.2.3-.4.6-.2.2-.4.4-.7.5-.4.3-.7.3-1.2.3zm.3-1.2c.4 0 .8-.1 1.1-.3s.5-.5.7-.9.2-.9.2-1.4-.1-1-.2-1.4c-.2-.4-.4-.7-.7-.9s-.7-.3-1.1-.3-.8.1-1.1.3-.5.5-.7.9c-.1.4-.2.8-.2 1.3s.1 1 .2 1.4c.2.4.4.7.7 1 .3.2.7.3 1.1.3zm5.7 1.1v-10.1h3.6c.8 0 1.4.1 1.9.4s.9.7 1.2 1.2.4 1 .4 1.7c0 .6-.1 1.2-.4 1.7s-.6.9-1.2 1.2c-.5.3-1.2.4-1.9.4h-2.5V107h2.3c.5 0 .9-.1 1.2-.3s.5-.4.7-.7c.1-.3.2-.6.2-1s-.1-.7-.2-1-.4-.5-.7-.7-.7-.3-1.2-.3h-1.9v8.8H242h0zm8.7 0v-7.6h1.4v1.2h.1c.1-.4.4-.7.7-1 .4-.2.7-.4 1.2-.4h.3.3v1.4c-.1 0-.2 0-.3-.1h-.5a2.39 2.39 0 0 0-.9.2.9.9 0 0 0-.6.6c-.2.3-.2.5-.2.9v4.6h-1.5v.2zm8.3.1c-.7 0-1.4-.2-1.9-.5s-.9-.8-1.2-1.4-.4-1.3-.4-2.1.1-1.5.4-2c.3-.6.7-1.1 1.2-1.4s1.1-.5 1.8-.5c.4 0 .8.1 1.2.2s.8.4 1.1.7.6.7.8 1.2.3 1.1.3 1.7v.5h-6v-1.1h4.6c0-.4-.1-.7-.2-1-.2-.3-.4-.5-.7-.7a1.69 1.69 0 0 0-1-.3c-.4 0-.8.1-1.1.3s-.5.5-.7.8-.2.7-.2 1v.9c0 .5.1.9.3 1.3a1.56 1.56 0 0 0 .8.8c.3.2.7.3 1.1.3.3 0 .5 0 .8-.1.2-.1.4-.2.6-.4s.3-.4.4-.6l1.4.3c-.1.4-.3.8-.6 1.1s-.6.5-1.1.7c-.7.3-1.1.3-1.7.3zm10.5-5.8l-1.3.2c-.1-.2-.1-.3-.3-.5-.1-.2-.3-.3-.5-.4s-.5-.1-.8-.1c-.4 0-.8.1-1 .3-.3.2-.4.4-.4.7s.1.5.3.6c.2.2.5.3.9.4l1.2.3c.7.2 1.2.4 1.6.7.3.3.5.8.5 1.3s-.1.9-.4 1.2c-.3.4-.6.6-1.1.8s-1 .3-1.6.3a4.65 4.65 0 0 1-2.1-.5c-.5-.4-.9-.9-1-1.5l1.4-.2c.1.4.3.7.5.8.3.2.6.3 1.1.3s.9-.1 1.2-.3.4-.5.4-.7-.1-.4-.3-.6-.4-.3-.8-.4l-1.3-.3c-.7-.2-1.2-.4-1.6-.8-.3-.4-.5-.8-.5-1.3a1.92 1.92 0 0 1 .4-1.2c.2-.3.6-.6 1-.8s.9-.3 1.5-.3c.8 0 1.5.2 1.9.5.7.4 1 .9 1.1 1.5zm7.5 0l-1.3.2c-.1-.2-.1-.3-.3-.5-.1-.2-.3-.3-.5-.4s-.5-.1-.8-.1c-.4 0-.8.1-1 .3-.3.2-.4.4-.4.7s.1.5.3.6c.2.2.5.3.9.4l1.2.3c.7.2 1.2.4 1.6.7.3.3.5.8.5 1.3s-.1.9-.4 1.2c-.3.4-.6.6-1.1.8s-1 .3-1.6.3a4.65 4.65 0 0 1-2.1-.5c-.5-.4-.9-.9-1-1.5l1.4-.2c.1.4.3.7.5.8.3.2.6.3 1.1.3s.9-.1 1.2-.3.4-.5.4-.7-.1-.4-.3-.6-.4-.3-.8-.4l-1.3-.3c-.7-.2-1.2-.4-1.6-.8-.3-.4-.5-.8-.5-1.3a1.92 1.92 0 0 1 .4-1.2c.2-.3.6-.6 1-.8s.9-.3 1.5-.3c.8 0 1.5.2 1.9.5.6.4.9.9 1.1 1.5z" fill="#f8fafb"/><path d="M200.6 107.1v.1c-.1 1.5-.5 3-1.3 4.3-1 1.6-2.3 2.7-4 3.5-.7.3-1.4.5-2.2.7-.6.1-1.3.1-1.9.1-1.2-.1-2.3-.3-3.4-.9-2.5-1.2-4.3-3.5-4.9-6.1-.1-.4-.2-.9-.2-1.4v-1.2c.1-1.6.6-3.2 1.5-4.5 1.1-1.7 2.6-2.8 4.5-3.5.6-.2 1.1-.3 1.7-.4.3 0 .6-.1.8-.1h.1.5.1c.5 0 .9.1 1.3.2 1.1.2 2 .6 3 1.2 1.5.9 2.6 2.2 3.4 3.8.5 1.1.8 2.3.9 3.5v.1l.1.6h0zm-.4-.3c0-4.7-3.8-8.6-8.6-8.6s-8.6 3.9-8.6 8.6 3.8 8.6 8.6 8.6 8.6-3.9 8.6-8.6h0zm-3.4-5.7c-.2 0-.3 0-.5.1-.5.2-.8.5-.9 1-.1.3 0 .6.1 1 .1.3.2.5.4.7l.5.8c.2.4.3.8.4 1.2s0 .8 0 1.2c-.1.5-.3 1-.4 1.5l-.8 2.8v.1c0-.1-2.8-8.1-2.8-8.3h.3c.2 0 .4 0 .6-.1.2 0 .3-.2.3-.4 0-.1-.1-.2-.3-.2h-.2c-.7.1-1.4.1-2.2.1h-1-.7c-.3 0-.4.3-.3.4 0 .1.1.2.3.2.3 0 .5.1.8.1v.1l1.2 3.2v.1l-1.2 3.7c-.1.4-.2.8-.4 1.1v.1l-2.8-8.3h.3c.2 0 .4 0 .6-.1.2 0 .3-.2.3-.4 0-.1-.2-.2-.3-.2h-.4-.8-1.2-.1c.7-1 1.6-1.9 2.6-2.5a7.03 7.03 0 0 1 4.9-.9c1.2.2 2.5.8 3.7 1.9h0zm-2.6 13c-.8.3-1.7.4-2.5.4s-1.8-.2-2.2-.3l2.3-6.7h0l2.4 6.6zm-6-.4c-3.8-1.8-5.3-6.3-3.7-10h0 0c1.3 3.3 2.5 6.7 3.7 10h0zm10.2-10.5c1.9 3.4.9 8.1-2.9 10.3v-.1c.4-1.3.9-2.5 1.3-3.8.3-1 .7-1.9 1-2.9.1-.3.2-.5.3-.8.2-.7.3-1.4.3-2.1.1-.2 0-.4 0-.6h0z" fill="#d9f2f5"/><path d="M313.8 238.2h-59.4c-8.4 0-15.3 6.8-15.3 15.3h0c0 8.4 6.8 15.3 15.3 15.3h59.4c8.4 0 15.3-6.8 15.3-15.3h0c0-8.4-6.8-15.3-15.3-15.3z" opacity=".5" fill-opacity=".31" stroke="#93b1c9" stroke-width=".5" stroke-miterlimit="10" class="W"/><path d="M270.1 259h-1.6l3.6-10.1h1.8l3.6 10.1h-1.6l-2.8-8.2h-.1l-2.9 8.2zm.2-3.9h5.2v1.3h-5.2v-1.3zm8.5 6.7v-10.4h1.4v1.2h.1c.1-.2.2-.3.4-.5s.4-.4.7-.5c.3-.2.7-.2 1.1-.2.6 0 1.2.2 1.6.5.5.3.9.8 1.1 1.3.3.6.4 1.3.4 2.1s-.1 1.5-.4 2.1-.6 1-1.1 1.3-1 .5-1.6.5c-.5 0-.8-.1-1.1-.2-.3-.2-.5-.3-.7-.5s-.3-.4-.4-.6h-.1v4l-1.4-.1h0zm1.4-6.6c0 .5.1 1 .2 1.4.2.4.4.7.7.9s.6.3 1.1.3c.4 0 .8-.1 1.1-.3s.5-.6.7-1 .2-.9.2-1.4-.1-.9-.2-1.3-.4-.7-.7-.9-.7-.3-1.1-.3-.8.1-1.1.3-.5.5-.7.9c-.1.4-.2.9-.2 1.4zm9.3 4c-.5 0-.9-.1-1.3-.3s-.7-.4-.9-.8c-.2-.3-.3-.8-.3-1.3 0-.4.1-.8.2-1.1.2-.3.4-.5.7-.7s.6-.3.9-.4.7-.1 1.1-.2c.5-.1.8-.1 1.1-.1s.5-.1.6-.2.2-.2.2-.4h0c0-.4-.1-.8-.4-1-.2-.2-.6-.4-1.1-.4s-.9.1-1.2.3-.5.5-.6.7l-1.4-.3c.2-.5.4-.8.7-1.1s.7-.5 1.1-.6.8-.2 1.3-.2c.3 0 .6 0 1 .1.3.1.7.2 1 .4s.5.5.7.8.3.8.3 1.3v5h-1.4v-1h-.1c-.1.2-.2.4-.4.6s-.4.3-.7.5c-.3.3-.6.4-1.1.4zm.4-1.2c.4 0 .8-.1 1-.2.3-.2.5-.4.7-.6.2-.3.2-.5.2-.8v-1c-.1.1-.2.1-.3.1s-.3.1-.5.1-.4.1-.6.1-.3 0-.5.1c-.3 0-.5.1-.8.2-.2.1-.4.2-.6.4-.1.2-.2.4-.2.6 0 .4.1.6.4.8.4.1.8.2 1.2.2zm8.5 1.2c-.7 0-1.4-.2-1.9-.5s-.9-.8-1.2-1.4-.4-1.3-.4-2c0-.8.1-1.4.4-2s.7-1.1 1.2-1.4 1.1-.5 1.9-.5c.6 0 1.1.1 1.5.3s.8.5 1.1.9.4.8.5 1.3h-1.4c-.1-.4-.3-.7-.5-.9-.3-.3-.7-.4-1.1-.4s-.8.1-1.1.3-.5.5-.7.9-.3.9-.3 1.4c0 .6.1 1 .3 1.4s.4.7.7.9.7.3 1.1.3c.3 0 .5-.1.8-.2.2-.1.4-.3.6-.4.2-.2.3-.4.3-.7h1.4c-.1.5-.2.9-.5 1.3s-.6.7-1.1.9c-.5.4-1 .5-1.6.5zm6.2-4.7v4.5h-1.5v-10.1h1.5v3.7h.1c.2-.4.4-.7.8-1 .4-.2.8-.4 1.4-.4.5 0 1 .1 1.4.3s.7.5.9 1c.2.4.3.9.3 1.6v4.8H308v-4.6c0-.6-.1-1-.4-1.3s-.7-.5-1.2-.5a2.39 2.39 0 0 0-.9.2c-.3.1-.5.4-.6.6-.3.5-.3.8-.3 1.2zm10.1 4.7c-.7 0-1.4-.2-1.9-.5s-.9-.8-1.2-1.4-.4-1.3-.4-2.1.1-1.5.4-2c.3-.6.7-1.1 1.2-1.4s1.1-.5 1.8-.5c.4 0 .8.1 1.2.2s.8.4 1.1.7.6.7.8 1.2.3 1.1.3 1.7v.5h-6v-1.1h4.6c0-.4-.1-.7-.2-1-.2-.3-.4-.5-.7-.7a1.69 1.69 0 0 0-1-.3c-.4 0-.8.1-1.1.3s-.5.5-.7.8-.2.7-.2 1v.9c0 .5.1.9.3 1.3a1.56 1.56 0 0 0 .8.8c.3.2.7.3 1.1.3.3 0 .5 0 .8-.1.2-.1.4-.2.6-.4s.3-.4.4-.6l1.4.3c-.1.4-.3.8-.6 1.1s-.6.5-1.1.7c-.7.2-1.2.3-1.7.3z" fill="#f8fafb"/><path d="M255.1 248.4c0-.1.1-.1.1-.2.1-.1.2-.3.3-.4.1-.2.3-.3.4-.5.2-.2.4-.5.6-.7.2-.3.5-.5.7-.8l.4-.4.3-.3.2-.2c.2-.1.3-.2.5-.3.1-.1.2-.1.3-.1h.1.1c.1.1.2.1.3.2.2.2.4.5.4.9v.3.3c0 .1 0 .2-.1.4 0 .2-.1.4-.2.6-.1.3-.3.6-.5.9l-.6.9c-.1.2-.3.4-.4.5l-.2.2c-.1.1-.1.1-.2.1a.76.76 0 0 0-.4-.2c-.1-.1-.3-.1-.4-.2-.3-.1-.5-.3-.8-.4 0-.1.1-.1.1-.2s.1-.1.1-.2h0c0-.1.1-.1.1-.1l.1-.1.1-.1s0-.1.1-.1l.1-.1h0l.1-.1.1-.1c.1-.1.1-.2.2-.3s.1-.2.2-.2l.1-.1s.1-.1.1-.2h0l.1-.1.1-.1c.1-.1.1-.2.2-.3.2-.3.5-.5.7-.8h0 0l-.7.7-.2.2-.2.2v.1h0l-.2.2c0 .1-.1.1-.1.2 0 0 0 .1-.1.1 0 0 0 .1-.1.1h0 0 0l-.1.1h0c-.1 0-.1.1-.1.1l-.2.2-.1.1c-.1.1-.1.2-.2.3 0 .1-.1.1-.1.2h0 0s-.1 0 0 .1h0 0c-.1-.1-.2-.1-.4-.2-.2.2-.4.1-.7-.1h0 0zm3.6-2.5h0 0 0 0 0 0z" fill="#f86801"/><path d="M249.2 262.2c0-.1.1-.2.1-.2.1-.4.3-.7.4-1.1l1.3-2.9v-.1h-.5c-.2 0-.4.1-.6.1h0c.3-.2.6-.4 1-.4-.1-.1-.2-.1-.3-.2l-.3-.3c.1 0 .1 0 .1.1.1.1.2.1.4.1h.3 0v-.3c0-.2-.1-.3-.1-.5l-.3-.6c-.1-.1-.1-.2-.2-.3h0c.1 0 .1.1.2.2.2.2.4.3.5.6h0v-.2-.2-.2-.2c0-.2.1-.3.1-.5v-.1h0c0 .1.1.1.1.2.1.3.2.6.4.9 0 .1.1.2.1.2s0 .1-.1.1c-.1.2-.2.3-.2.5-.1.2-.2.5-.3.7 0 .1-.1.1-.1.2-.1.1-.1.3-.2.4l-.7 1.6c-.1.3-.3.6-.4 1 0 .1-.1.2-.1.3s-.1.1-.1.2-.1.1-.1.2-.1.2-.1.3c0 .3-.1.4-.3.4 0 .1 0 .1 0 0h0z" class="X"/><path d="M256.2 249.2c.3.1.5.3.8.4.1.1.3.1.4.2a.76.76 0 0 0 .4.2c-.1.1-.3.1-.5.2.2 0 .3 0 .5-.1.2 0 .3-.1.4-.2 0 .1 0 .1-.1.2 0 .1-.1.2-.1.2 0 .1-.1.1-.1.2-.1.2-.2.3-.3.5-.1.1-.2.2-.2.3-.1.1-.2.2-.3.2s-.1.1-.2.1c-.1.1-.3.1-.4.2.1 0 .3 0 .4-.1a.76.76 0 0 0 .4-.2c-.3.5-.8.9-1.3 1.1.2 0 .5-.1.7-.1-.1.1-.1.3-.2.4 0 .1-.1.2-.1.2 0 .1-.1.1-.1.2s-.1.2-.1.3c-.1.1-.1.2-.2.3 0 .1-.1.2-.2.3a.76.76 0 0 0-.4-.2c-.3-.2-.6-.4-.9-.5-.2-.1-.4-.2-.5-.3-.1 0-.1-.1-.2-.1 0-.1 0-.1.1-.1v-.1h0 0 0 0 0 0c0-.1.1-.1.1-.2s.1-.1.1-.2.1-.1.1-.2l.3-.6c.1-.1.1-.2.2-.4.1-.1.2-.3.3-.4s.1-.2.2-.3.2-.3.3-.4c.1-.2.3-.4.4-.6.2-.2.2-.3.3-.4h0z" fill="#de012f"/><path d="M253.9 253.2c.1 0 .1.1.2.1.2.1.4.2.5.3.3.2.6.4.9.5a.76.76 0 0 0 .4.2c0 .1-.1.2-.2.3 0 .1-.1.1-.1.2-.1.1-.1.2-.2.3s-.2.3-.4.4c-.2.2-.5.4-.7.6-.2.1-.3.2-.5.3l-.9.3h-.2-.2-.3c0-.1.1-.1.1-.2.1-.3.3-.5.4-.8.1-.1.1-.3.2-.4l.3-.6c.1-.2.2-.4.3-.5s.1-.3.2-.4c0-.3 0-.4.2-.6-.1 0-.1 0 0 0h0z" class="Y"/><path d="M255.1 248.4h0l.6.4c.1.1.2.1.4.2h0v.1h0 0c0 .1-.1.1-.1.1 0 .1-.1.1-.1.1-.1.1-.1.2-.2.3s-.1.2-.2.3c-.1.2-.2.3-.3.5l-.6 1c-.2.3-.3.6-.5.9 0 .1-.1.1-.1.2h0c0 .1-.1.2-.2.3h-.1l-.8-.5c-.1-.1-.2-.1-.4-.2h0 0c0-.1.1-.2.2-.3s.1-.2.2-.3l.1-.1v-.1c.1-.2.3-.5.4-.7.1-.1.2-.3.3-.4 0-.1.1-.2.2-.2.1-.1.1-.2.2-.3s.1-.2.2-.3c.1-.2.2-.3.4-.5.1-.1.1-.2.2-.3 0 .1.1 0 .2-.2h0 0z" fill="#de012f"/><path d="M252.6 252.3c.1.1.2.1.4.2l.8.5h.1v.1c0 .1-.1.1-.1.2l-.1.1c-.1.1-.1.2-.2.3l-.3.6c-.1.1-.1.3-.2.4-.3.5-.6 1.1-.8 1.7v.1c0-.1-.1-.2-.1-.2-.1-.3-.2-.6-.4-.9 0-.1-.1-.1-.1-.2h0c0-.1.1-.2.1-.3 0-.2.1-.3.2-.5s.1-.3.2-.5.1-.4.2-.5c.1-.2.2-.3.2-.5-.1-.3 0-.5.1-.6h0z" class="Y"/><g class="X"><path d="M252.1 256.6h.3.2.2.3c.5 0 1-.1 1.5-.4l.1-.1h0a3.04 3.04 0 0 1-1.3 1.2c-.1 0-.2.1-.3.1h0c.3 0 .6 0 .9-.2h0c-.2.3-.4.5-.7.6-.2.1-.3.1-.5.2-.2 0-.3.1-.5.1h-.3-.4-.1c.2.2.3.5.3.8 0 0-.1-.1-.1-.2s-.1-.2-.2-.3l-.2-.2h0c.1-.1.1-.2.1-.3.1-.1.1-.2.1-.3.1-.1.1-.3.2-.4s.1-.3.2-.4.2-.1.2-.2h0zm2.7-.5h0 0 0z"/><path d="M254 257.2h0 0 0 0 0zm-3.9 0h0 0 0 0z"/></g><path d="M252.6 252.2h0 0z" class="Y"/><path d="M250.4 255.6h0 0 0z" class="X"/></svg>