<?xml version="1.0" encoding="utf-8"?>
<!-- Generator: Adobe Illustrator 24.3.0, SVG Export Plug-In . SVG Version: 6.00 Build 0)  -->
<svg version="1.1" id="Capa_1" xmlns="http://www.w3.org/2000/svg" xmlns:xlink="http://www.w3.org/1999/xlink" x="0px" y="0px"
	 viewBox="0 0 512 512" style="enable-background:new 0 0 512 512;" xml:space="preserve">
<style type="text/css">
	.st0{fill:#EEB462;}
	.st1{fill:#E49542;}
</style>
<g>
	<path class="st0" d="M255.6,480.6c-11.1,19.4-34,30.2-57,24.9h0c-23-5.3-38.9-25-40.4-47.3c-18.5,12.7-43.8,12.4-62.2-2.3
		c-18.4-14.7-24.2-39.3-15.9-60.1c-22.1,3.4-44.8-7.7-55-29c-10.2-21.2-4.8-46,11.8-61.1c-21.4-6.5-37-26.5-37-50
		c0-23.5,15.6-43.4,37.1-49.9c-16.5-15.2-21.9-39.9-11.6-61.1c10.3-21.2,33-32.3,55.1-28.9c-8.3-20.8-2.4-45.4,16-60.1
		c18.4-14.7,43.7-14.9,62.2-2.2c1.6-22.4,17.5-42,40.5-47.2c23-5.2,45.8,5.6,56.9,25c11.1-19.4,34-30.2,56.9-25
		c23,5.2,38.9,24.9,40.5,47.3c18.5-12.7,43.8-12.5,62.2,2.2c18.4,14.7,24.2,39.3,15.9,60.1c22.1-3.5,44.8,7.7,55.1,28.9
		c10.2,21.2,4.8,46-11.7,61.1c21.4,6.5,37,26.4,37,50v0.2v0.4c-0.1,23.5-15.7,43.4-37.1,49.9c16.5,15.2,21.9,39.9,11.6,61.2
		c-10.3,21.2-33,32.3-55.1,28.8c8.2,20.8,2.4,45.4-16.1,60c-18.4,14.7-43.8,14.9-62.2,2.1c-1.6,22.4-17.6,42-40.6,47.2
		c-3.9,0.9-7.7,1.3-11.5,1.3C282.2,507,264.8,496.8,255.6,480.6L255.6,480.6z"/>
	<path class="st1" d="M116,415.1c0-6.5,1.2-13.1,3.7-19.3c-2.6,0.4-5.3,0.6-7.9,0.6c-19.5,0-38.1-10.9-47.1-29.6
		c-3.5-7.3-5.2-15-5.2-22.6c0-14.5,6.1-28.6,16.9-38.5c-21.4-6.5-37-26.4-37-49.9v-0.1c0-11.8,3.9-22.6,10.5-31.4
		c6.6-8.7,15.8-15.3,26.6-18.6c-10.8-9.9-16.9-24-16.9-38.5c0-7.6,1.7-15.4,5.2-22.7c9-18.6,27.6-29.5,47-29.5c2.7,0,5.4,0.2,8,0.6
		c-2.5-6.2-3.7-12.7-3.7-19.2c0-15.3,6.7-30.5,19.7-40.8c4-3.2,8.3-5.7,12.8-7.5c-6.3-2.6-13-3.9-19.8-3.9
		c-11.4,0-22.9,3.7-32.5,11.4C83.6,66,76.8,81.2,76.8,96.6c0,6.5,1.2,13,3.7,19.2c-2.7-0.4-5.4-0.6-8-0.6c-19.4,0-38,10.8-47,29.5
		c-3.5,7.3-5.2,15.1-5.2,22.7c0,14.5,6,28.5,16.9,38.5c-10.7,3.2-20,9.8-26.6,18.6C3.9,233.1,0,243.9,0,255.7v0.1
		c0,23.5,15.6,43.4,37,49.9c-10.9,9.9-16.9,24-16.9,38.5c0,7.6,1.7,15.3,5.2,22.6c9,18.7,27.7,29.6,47.1,29.6c2.6,0,5.3-0.2,7.9-0.6
		c-2.5,6.2-3.7,12.8-3.7,19.3c0,15.3,6.7,30.5,19.6,40.8c9.6,7.7,21.1,11.5,32.6,11.5c6.7,0,13.5-1.3,19.8-3.9
		c-4.5-1.8-8.9-4.4-12.9-7.6C122.7,445.6,116,430.4,116,415.1L116,415.1z"/>
	<path class="st1" d="M148.8,48.2c3.5,1.4,6.8,3.2,9.9,5.3c0.2-2.9,0.6-5.7,1.3-8.5C156.2,45.7,152.4,46.7,148.8,48.2z M158.3,458.2
		c-3.1,2.1-6.4,3.9-9.8,5.3c3.6,1.5,7.3,2.5,11.1,3.2C158.9,463.9,158.5,461.1,158.3,458.2z"/>
	<g>
		<g>
			<circle class="st1" cx="256" cy="120.7" r="20.5"/>
			<circle class="st1" cx="256" cy="391.3" r="20.5"/>
		</g>
	</g>
	<g>
		<g>
			<circle class="st1" cx="138.8" cy="188.4" r="20.5"/>
			<circle class="st1" cx="373.2" cy="323.6" r="20.5"/>
		</g>
	</g>
	<g>
		<g>
			<circle class="st1" cx="138.8" cy="323.6" r="20.5"/>
			<circle class="st1" cx="373.2" cy="188.4" r="20.5"/>
		</g>
	</g>
	<g>
		<circle class="st1" cx="256" cy="256" r="20.5"/>
	</g>
</g>
</svg>
